<mxfile host="app.diagrams.net" modified="2023-04-14T20:59:34.654Z" agent="Mozilla/5.0 (X11; Linux x86_64) AppleWebKit/537.36 (KHTML, like Gecko) Chrome/112.0.0.0 Safari/537.36" etag="vDB7Gesb8RjohRLR3g7A" version="21.1.8" type="github">
  <diagram name="Página-1" id="7kXYrk2Avnmh6IHybVN-">
    <mxGraphModel dx="1687" dy="949" grid="1" gridSize="10" guides="1" tooltips="1" connect="1" arrows="1" fold="1" page="1" pageScale="1" pageWidth="2500" pageHeight="2500" math="0" shadow="0">
      <root>
        <mxCell id="0" />
        <mxCell id="1" parent="0" />
        <mxCell id="wZuFeC5D8lDeIrhIpYlz-49" value="" style="rounded=0;whiteSpace=wrap;html=1;container=0;" parent="1" vertex="1">
          <mxGeometry x="480" y="20" width="1160" height="2240" as="geometry" />
        </mxCell>
        <mxCell id="wZuFeC5D8lDeIrhIpYlz-4" value="&lt;font style=&quot;font-size: 23px;&quot;&gt;Moderador&lt;/font&gt;" style="shape=umlActor;verticalLabelPosition=bottom;verticalAlign=top;html=1;outlineConnect=0;" parent="1" vertex="1">
          <mxGeometry x="100" y="925" width="80" height="180" as="geometry" />
        </mxCell>
        <mxCell id="wZuFeC5D8lDeIrhIpYlz-8" value="&lt;font style=&quot;font-size: 22px;&quot;&gt;Iniciar sesión&lt;/font&gt;" style="ellipse;whiteSpace=wrap;html=1;" parent="1" vertex="1">
          <mxGeometry x="570" y="200" width="190" height="110" as="geometry" />
        </mxCell>
        <mxCell id="wZuFeC5D8lDeIrhIpYlz-9" value="" style="endArrow=none;html=1;rounded=0;exitX=0;exitY=0.5;exitDx=0;exitDy=0;entryX=0.5;entryY=0.5;entryDx=0;entryDy=0;entryPerimeter=0;" parent="1" source="wZuFeC5D8lDeIrhIpYlz-8" target="wZuFeC5D8lDeIrhIpYlz-4" edge="1">
          <mxGeometry width="50" height="50" relative="1" as="geometry">
            <mxPoint x="980" y="600" as="sourcePoint" />
            <mxPoint x="1030" y="550" as="targetPoint" />
          </mxGeometry>
        </mxCell>
        <mxCell id="wZuFeC5D8lDeIrhIpYlz-11" value="&lt;font style=&quot;font-size: 22px;&quot;&gt;Ingresar nombre de usuario y clave&lt;/font&gt;" style="ellipse;whiteSpace=wrap;html=1;" parent="1" vertex="1">
          <mxGeometry x="900" y="180" width="220" height="120" as="geometry" />
        </mxCell>
        <mxCell id="wZuFeC5D8lDeIrhIpYlz-12" value="" style="endArrow=classic;dashed=1;html=1;dashPattern=1 3;strokeWidth=2;rounded=0;entryX=0;entryY=0.5;entryDx=0;entryDy=0;exitX=1;exitY=0.5;exitDx=0;exitDy=0;endFill=1;" parent="1" source="wZuFeC5D8lDeIrhIpYlz-8" target="wZuFeC5D8lDeIrhIpYlz-11" edge="1">
          <mxGeometry width="50" height="50" relative="1" as="geometry">
            <mxPoint x="980" y="590" as="sourcePoint" />
            <mxPoint x="1030" y="540" as="targetPoint" />
          </mxGeometry>
        </mxCell>
        <mxCell id="wZuFeC5D8lDeIrhIpYlz-13" value="&lt;font style=&quot;font-size: 23px;&quot;&gt;Include&lt;/font&gt;" style="edgeLabel;html=1;align=center;verticalAlign=middle;resizable=0;points=[];" parent="wZuFeC5D8lDeIrhIpYlz-12" vertex="1" connectable="0">
          <mxGeometry x="-0.1952" y="-1" relative="1" as="geometry">
            <mxPoint x="7" y="-26" as="offset" />
          </mxGeometry>
        </mxCell>
        <mxCell id="wZuFeC5D8lDeIrhIpYlz-14" value="&lt;font style=&quot;font-size: 22px;&quot;&gt;Inventario&lt;/font&gt;" style="ellipse;whiteSpace=wrap;html=1;" parent="1" vertex="1">
          <mxGeometry x="580" y="380" width="190" height="110" as="geometry" />
        </mxCell>
        <mxCell id="wZuFeC5D8lDeIrhIpYlz-16" style="edgeStyle=orthogonalEdgeStyle;rounded=0;orthogonalLoop=1;jettySize=auto;html=1;dashed=1;" parent="1" source="wZuFeC5D8lDeIrhIpYlz-15" target="wZuFeC5D8lDeIrhIpYlz-14" edge="1">
          <mxGeometry relative="1" as="geometry" />
        </mxCell>
        <mxCell id="wZuFeC5D8lDeIrhIpYlz-17" value="&lt;font style=&quot;font-size: 23px;&quot;&gt;Extend&lt;/font&gt;" style="edgeLabel;html=1;align=center;verticalAlign=middle;resizable=0;points=[];" parent="wZuFeC5D8lDeIrhIpYlz-16" vertex="1" connectable="0">
          <mxGeometry x="-0.1732" y="2" relative="1" as="geometry">
            <mxPoint x="-14" y="-27" as="offset" />
          </mxGeometry>
        </mxCell>
        <mxCell id="wZuFeC5D8lDeIrhIpYlz-15" value="&lt;font style=&quot;font-size: 22px;&quot;&gt;Prendas&lt;br&gt;&lt;/font&gt;" style="ellipse;whiteSpace=wrap;html=1;" parent="1" vertex="1">
          <mxGeometry x="930" y="400" width="190" height="110" as="geometry" />
        </mxCell>
        <mxCell id="wZuFeC5D8lDeIrhIpYlz-20" style="edgeStyle=orthogonalEdgeStyle;rounded=0;orthogonalLoop=1;jettySize=auto;html=1;entryX=1;entryY=0;entryDx=0;entryDy=0;dashed=1;" parent="1" source="wZuFeC5D8lDeIrhIpYlz-18" target="wZuFeC5D8lDeIrhIpYlz-15" edge="1">
          <mxGeometry relative="1" as="geometry">
            <Array as="points">
              <mxPoint x="1092" y="350" />
            </Array>
          </mxGeometry>
        </mxCell>
        <mxCell id="wZuFeC5D8lDeIrhIpYlz-21" value="&lt;font style=&quot;font-size: 23px;&quot;&gt;Extend&lt;/font&gt;" style="edgeLabel;html=1;align=center;verticalAlign=middle;resizable=0;points=[];" parent="wZuFeC5D8lDeIrhIpYlz-20" vertex="1" connectable="0">
          <mxGeometry x="0.2074" y="-2" relative="1" as="geometry">
            <mxPoint x="39" y="-18" as="offset" />
          </mxGeometry>
        </mxCell>
        <mxCell id="wZuFeC5D8lDeIrhIpYlz-18" value="&lt;font style=&quot;font-size: 22px;&quot;&gt;Ver&lt;br&gt;&lt;/font&gt;" style="ellipse;whiteSpace=wrap;html=1;" parent="1" vertex="1">
          <mxGeometry x="1250" y="270" width="190" height="110" as="geometry" />
        </mxCell>
        <mxCell id="Bx9YppGljFobjhbyYAwD-3" style="edgeStyle=orthogonalEdgeStyle;rounded=0;orthogonalLoop=1;jettySize=auto;html=1;entryX=1;entryY=1;entryDx=0;entryDy=0;dashed=1;" parent="1" source="wZuFeC5D8lDeIrhIpYlz-19" target="wZuFeC5D8lDeIrhIpYlz-15" edge="1">
          <mxGeometry relative="1" as="geometry" />
        </mxCell>
        <mxCell id="Bx9YppGljFobjhbyYAwD-4" value="&lt;font style=&quot;font-size: 23px;&quot;&gt;Extend&lt;/font&gt;" style="edgeLabel;html=1;align=center;verticalAlign=middle;resizable=0;points=[];" parent="Bx9YppGljFobjhbyYAwD-3" vertex="1" connectable="0">
          <mxGeometry x="0.1974" y="4" relative="1" as="geometry">
            <mxPoint x="-32" y="32" as="offset" />
          </mxGeometry>
        </mxCell>
        <mxCell id="wZuFeC5D8lDeIrhIpYlz-19" value="&lt;font style=&quot;font-size: 22px;&quot;&gt;Cambias estado&lt;br&gt;&lt;/font&gt;" style="ellipse;whiteSpace=wrap;html=1;" parent="1" vertex="1">
          <mxGeometry x="1240" y="490" width="190" height="110" as="geometry" />
        </mxCell>
        <mxCell id="wZuFeC5D8lDeIrhIpYlz-25" value="&lt;span style=&quot;font-size: 22px;&quot;&gt;Otros&lt;/span&gt;" style="ellipse;whiteSpace=wrap;html=1;" parent="1" vertex="1">
          <mxGeometry x="580" y="600" width="190" height="110" as="geometry" />
        </mxCell>
        <mxCell id="wZuFeC5D8lDeIrhIpYlz-26" style="edgeStyle=orthogonalEdgeStyle;rounded=0;orthogonalLoop=1;jettySize=auto;html=1;dashed=1;" parent="1" source="wZuFeC5D8lDeIrhIpYlz-28" target="wZuFeC5D8lDeIrhIpYlz-25" edge="1">
          <mxGeometry relative="1" as="geometry">
            <Array as="points">
              <mxPoint x="850" y="705" />
              <mxPoint x="850" y="655" />
            </Array>
          </mxGeometry>
        </mxCell>
        <mxCell id="wZuFeC5D8lDeIrhIpYlz-27" value="&lt;font style=&quot;font-size: 23px;&quot;&gt;Extend&lt;/font&gt;" style="edgeLabel;html=1;align=center;verticalAlign=middle;resizable=0;points=[];" parent="wZuFeC5D8lDeIrhIpYlz-26" vertex="1" connectable="0">
          <mxGeometry x="-0.1732" y="2" relative="1" as="geometry">
            <mxPoint x="-14" y="-41" as="offset" />
          </mxGeometry>
        </mxCell>
        <mxCell id="wZuFeC5D8lDeIrhIpYlz-28" value="&lt;font style=&quot;font-size: 22px;&quot;&gt;Categorias&lt;br&gt;&lt;/font&gt;" style="ellipse;whiteSpace=wrap;html=1;" parent="1" vertex="1">
          <mxGeometry x="900" y="650" width="190" height="110" as="geometry" />
        </mxCell>
        <mxCell id="wZuFeC5D8lDeIrhIpYlz-29" style="edgeStyle=orthogonalEdgeStyle;rounded=0;orthogonalLoop=1;jettySize=auto;html=1;entryX=1;entryY=0;entryDx=0;entryDy=0;dashed=1;" parent="1" source="wZuFeC5D8lDeIrhIpYlz-31" target="wZuFeC5D8lDeIrhIpYlz-28" edge="1">
          <mxGeometry relative="1" as="geometry" />
        </mxCell>
        <mxCell id="wZuFeC5D8lDeIrhIpYlz-30" value="&lt;font style=&quot;font-size: 23px;&quot;&gt;Extend&lt;/font&gt;" style="edgeLabel;html=1;align=center;verticalAlign=middle;resizable=0;points=[];" parent="wZuFeC5D8lDeIrhIpYlz-29" vertex="1" connectable="0">
          <mxGeometry x="0.2074" y="-2" relative="1" as="geometry">
            <mxPoint x="60" y="26" as="offset" />
          </mxGeometry>
        </mxCell>
        <mxCell id="wZuFeC5D8lDeIrhIpYlz-31" value="&lt;font style=&quot;font-size: 22px;&quot;&gt;Ver&lt;br&gt;&lt;/font&gt;" style="ellipse;whiteSpace=wrap;html=1;" parent="1" vertex="1">
          <mxGeometry x="1270" y="650" width="190" height="110" as="geometry" />
        </mxCell>
        <mxCell id="FkhOKwiWbC-E_QFP129G-2" style="edgeStyle=orthogonalEdgeStyle;rounded=0;orthogonalLoop=1;jettySize=auto;html=1;entryX=1;entryY=1;entryDx=0;entryDy=0;dashed=1;" edge="1" parent="1" source="wZuFeC5D8lDeIrhIpYlz-34" target="wZuFeC5D8lDeIrhIpYlz-28">
          <mxGeometry relative="1" as="geometry">
            <Array as="points">
              <mxPoint x="1090" y="830" />
              <mxPoint x="1090" y="744" />
            </Array>
          </mxGeometry>
        </mxCell>
        <mxCell id="FkhOKwiWbC-E_QFP129G-3" value="&lt;font style=&quot;font-size: 23px;&quot;&gt;Extend&lt;/font&gt;" style="edgeLabel;html=1;align=center;verticalAlign=middle;resizable=0;points=[];" vertex="1" connectable="0" parent="FkhOKwiWbC-E_QFP129G-2">
          <mxGeometry x="-0.0256" y="2" relative="1" as="geometry">
            <mxPoint x="55" y="-22" as="offset" />
          </mxGeometry>
        </mxCell>
        <mxCell id="wZuFeC5D8lDeIrhIpYlz-34" value="&lt;font style=&quot;font-size: 22px;&quot;&gt;Cambiar estado&lt;br&gt;&lt;/font&gt;" style="ellipse;whiteSpace=wrap;html=1;" parent="1" vertex="1">
          <mxGeometry x="1260" y="800" width="190" height="110" as="geometry" />
        </mxCell>
        <mxCell id="wZuFeC5D8lDeIrhIpYlz-46" style="edgeStyle=orthogonalEdgeStyle;rounded=0;orthogonalLoop=1;jettySize=auto;html=1;entryX=1;entryY=1;entryDx=0;entryDy=0;dashed=1;" parent="1" source="wZuFeC5D8lDeIrhIpYlz-35" target="wZuFeC5D8lDeIrhIpYlz-25" edge="1">
          <mxGeometry relative="1" as="geometry" />
        </mxCell>
        <mxCell id="wZuFeC5D8lDeIrhIpYlz-47" value="&lt;font style=&quot;font-size: 23px;&quot;&gt;Extend&lt;br&gt;&lt;/font&gt;" style="edgeLabel;html=1;align=center;verticalAlign=middle;resizable=0;points=[];" parent="wZuFeC5D8lDeIrhIpYlz-46" vertex="1" connectable="0">
          <mxGeometry x="0.2389" y="3" relative="1" as="geometry">
            <mxPoint x="61" y="17" as="offset" />
          </mxGeometry>
        </mxCell>
        <mxCell id="wZuFeC5D8lDeIrhIpYlz-35" value="&lt;font style=&quot;font-size: 22px;&quot;&gt;Tallas&lt;br&gt;&lt;/font&gt;" style="ellipse;whiteSpace=wrap;html=1;" parent="1" vertex="1">
          <mxGeometry x="900" y="820" width="190" height="110" as="geometry" />
        </mxCell>
        <mxCell id="wZuFeC5D8lDeIrhIpYlz-42" style="edgeStyle=orthogonalEdgeStyle;rounded=0;orthogonalLoop=1;jettySize=auto;html=1;entryX=1;entryY=0.5;entryDx=0;entryDy=0;dashed=1;" parent="1" source="wZuFeC5D8lDeIrhIpYlz-38" target="wZuFeC5D8lDeIrhIpYlz-35" edge="1">
          <mxGeometry relative="1" as="geometry" />
        </mxCell>
        <mxCell id="wZuFeC5D8lDeIrhIpYlz-43" value="&lt;font style=&quot;font-size: 23px;&quot;&gt;Extend&lt;br&gt;&lt;/font&gt;" style="edgeLabel;html=1;align=center;verticalAlign=middle;resizable=0;points=[];" parent="wZuFeC5D8lDeIrhIpYlz-42" vertex="1" connectable="0">
          <mxGeometry x="0.2571" y="5" relative="1" as="geometry">
            <mxPoint x="45" y="38" as="offset" />
          </mxGeometry>
        </mxCell>
        <mxCell id="wZuFeC5D8lDeIrhIpYlz-38" value="&lt;font style=&quot;font-size: 22px;&quot;&gt;Ver&lt;br&gt;&lt;/font&gt;" style="ellipse;whiteSpace=wrap;html=1;" parent="1" vertex="1">
          <mxGeometry x="1250" y="950" width="190" height="110" as="geometry" />
        </mxCell>
        <mxCell id="wZuFeC5D8lDeIrhIpYlz-44" style="edgeStyle=orthogonalEdgeStyle;rounded=0;orthogonalLoop=1;jettySize=auto;html=1;entryX=1;entryY=1;entryDx=0;entryDy=0;dashed=1;" parent="1" source="wZuFeC5D8lDeIrhIpYlz-41" target="wZuFeC5D8lDeIrhIpYlz-35" edge="1">
          <mxGeometry relative="1" as="geometry" />
        </mxCell>
        <mxCell id="wZuFeC5D8lDeIrhIpYlz-45" value="&lt;font style=&quot;font-size: 23px;&quot;&gt;Extend&lt;br&gt;&lt;/font&gt;" style="edgeLabel;html=1;align=center;verticalAlign=middle;resizable=0;points=[];" parent="wZuFeC5D8lDeIrhIpYlz-44" vertex="1" connectable="0">
          <mxGeometry x="0.3343" relative="1" as="geometry">
            <mxPoint x="58" y="40" as="offset" />
          </mxGeometry>
        </mxCell>
        <mxCell id="wZuFeC5D8lDeIrhIpYlz-41" value="&lt;font style=&quot;font-size: 22px;&quot;&gt;Agregar&lt;br&gt;&lt;/font&gt;" style="ellipse;whiteSpace=wrap;html=1;" parent="1" vertex="1">
          <mxGeometry x="1260" y="1070" width="190" height="110" as="geometry" />
        </mxCell>
        <mxCell id="wZuFeC5D8lDeIrhIpYlz-50" value="&lt;b style=&quot;border-color: var(--border-color); font-size: 32px;&quot;&gt;Panel Administrador&lt;/b&gt;" style="text;html=1;strokeColor=none;fillColor=none;align=center;verticalAlign=middle;whiteSpace=wrap;rounded=0;" parent="1" vertex="1">
          <mxGeometry x="897.5" y="40" width="285" height="80" as="geometry" />
        </mxCell>
        <mxCell id="wZuFeC5D8lDeIrhIpYlz-53" value="" style="endArrow=none;html=1;rounded=0;entryX=0;entryY=0.5;entryDx=0;entryDy=0;exitX=0.5;exitY=0.5;exitDx=0;exitDy=0;exitPerimeter=0;" parent="1" source="wZuFeC5D8lDeIrhIpYlz-4" target="wZuFeC5D8lDeIrhIpYlz-14" edge="1">
          <mxGeometry width="50" height="50" relative="1" as="geometry">
            <mxPoint x="810" y="690" as="sourcePoint" />
            <mxPoint x="860" y="640" as="targetPoint" />
          </mxGeometry>
        </mxCell>
        <mxCell id="wZuFeC5D8lDeIrhIpYlz-54" value="" style="endArrow=none;html=1;rounded=0;entryX=0;entryY=0.5;entryDx=0;entryDy=0;exitX=0.5;exitY=0.5;exitDx=0;exitDy=0;exitPerimeter=0;" parent="1" source="wZuFeC5D8lDeIrhIpYlz-4" target="wZuFeC5D8lDeIrhIpYlz-25" edge="1">
          <mxGeometry width="50" height="50" relative="1" as="geometry">
            <mxPoint x="810" y="690" as="sourcePoint" />
            <mxPoint x="860" y="640" as="targetPoint" />
          </mxGeometry>
        </mxCell>
        <mxCell id="wZuFeC5D8lDeIrhIpYlz-70" style="edgeStyle=orthogonalEdgeStyle;rounded=0;orthogonalLoop=1;jettySize=auto;html=1;entryX=1;entryY=0.5;entryDx=0;entryDy=0;dashed=1;" parent="1" source="wZuFeC5D8lDeIrhIpYlz-64" edge="1">
          <mxGeometry relative="1" as="geometry">
            <Array as="points">
              <mxPoint x="870" y="945" />
            </Array>
            <mxPoint x="750" y="945" as="targetPoint" />
          </mxGeometry>
        </mxCell>
        <mxCell id="SYt4uejBmZhXCNzfpht0-1" value="&lt;font style=&quot;font-size: 22px;&quot;&gt;Ventas&lt;br&gt;&lt;/font&gt;" style="ellipse;whiteSpace=wrap;html=1;" parent="1" vertex="1">
          <mxGeometry x="480" y="1150" width="190" height="110" as="geometry" />
        </mxCell>
        <mxCell id="FkhOKwiWbC-E_QFP129G-10" style="edgeStyle=orthogonalEdgeStyle;rounded=0;orthogonalLoop=1;jettySize=auto;html=1;entryX=1;entryY=0;entryDx=0;entryDy=0;dashed=1;" edge="1" parent="1" source="SYt4uejBmZhXCNzfpht0-4" target="SYt4uejBmZhXCNzfpht0-1">
          <mxGeometry relative="1" as="geometry" />
        </mxCell>
        <mxCell id="FkhOKwiWbC-E_QFP129G-13" value="&lt;font style=&quot;font-size: 23px;&quot;&gt;Extend&lt;/font&gt;" style="edgeLabel;html=1;align=center;verticalAlign=middle;resizable=0;points=[];" vertex="1" connectable="0" parent="FkhOKwiWbC-E_QFP129G-10">
          <mxGeometry x="-0.4433" y="2" relative="1" as="geometry">
            <mxPoint x="-27" y="-28" as="offset" />
          </mxGeometry>
        </mxCell>
        <mxCell id="SYt4uejBmZhXCNzfpht0-4" value="&lt;font style=&quot;font-size: 22px;&quot;&gt;Ver&lt;br&gt;&lt;/font&gt;" style="ellipse;whiteSpace=wrap;html=1;" parent="1" vertex="1">
          <mxGeometry x="720" y="1050" width="190" height="110" as="geometry" />
        </mxCell>
        <mxCell id="SYt4uejBmZhXCNzfpht0-5" style="edgeStyle=orthogonalEdgeStyle;rounded=0;orthogonalLoop=1;jettySize=auto;html=1;entryX=1;entryY=1;entryDx=0;entryDy=0;dashed=1;" parent="1" source="SYt4uejBmZhXCNzfpht0-7" target="SYt4uejBmZhXCNzfpht0-1" edge="1">
          <mxGeometry relative="1" as="geometry">
            <mxPoint x="702.4045393920669" y="1139.997610150438" as="targetPoint" />
          </mxGeometry>
        </mxCell>
        <mxCell id="SYt4uejBmZhXCNzfpht0-6" value="&lt;font style=&quot;font-size: 23px;&quot;&gt;Extend&lt;/font&gt;" style="edgeLabel;html=1;align=center;verticalAlign=middle;resizable=0;points=[];" parent="SYt4uejBmZhXCNzfpht0-5" vertex="1" connectable="0">
          <mxGeometry x="0.4218" relative="1" as="geometry">
            <mxPoint x="38" y="26" as="offset" />
          </mxGeometry>
        </mxCell>
        <mxCell id="SYt4uejBmZhXCNzfpht0-7" value="&lt;font style=&quot;font-size: 22px;&quot;&gt;Descargar facturas&lt;br&gt;&lt;/font&gt;" style="ellipse;whiteSpace=wrap;html=1;" parent="1" vertex="1">
          <mxGeometry x="710" y="1426.24" width="210" height="110" as="geometry" />
        </mxCell>
        <mxCell id="SYt4uejBmZhXCNzfpht0-8" style="edgeStyle=orthogonalEdgeStyle;rounded=0;orthogonalLoop=1;jettySize=auto;html=1;entryX=0.5;entryY=1;entryDx=0;entryDy=0;dashed=1;" parent="1" source="SYt4uejBmZhXCNzfpht0-10" target="SYt4uejBmZhXCNzfpht0-1" edge="1">
          <mxGeometry relative="1" as="geometry">
            <mxPoint x="635" y="1156.24" as="targetPoint" />
          </mxGeometry>
        </mxCell>
        <mxCell id="SYt4uejBmZhXCNzfpht0-9" value="&lt;font style=&quot;font-size: 23px;&quot;&gt;Extend&lt;/font&gt;" style="edgeLabel;html=1;align=center;verticalAlign=middle;resizable=0;points=[];" parent="SYt4uejBmZhXCNzfpht0-8" vertex="1" connectable="0">
          <mxGeometry x="-0.0762" y="1" relative="1" as="geometry">
            <mxPoint x="36" y="30" as="offset" />
          </mxGeometry>
        </mxCell>
        <mxCell id="SYt4uejBmZhXCNzfpht0-10" value="&lt;font style=&quot;font-size: 22px;&quot;&gt;Cambias estado&lt;br&gt;&lt;/font&gt;" style="ellipse;whiteSpace=wrap;html=1;" parent="1" vertex="1">
          <mxGeometry x="710" y="1566.24" width="210" height="110" as="geometry" />
        </mxCell>
        <mxCell id="SYt4uejBmZhXCNzfpht0-11" value="" style="endArrow=none;html=1;rounded=0;entryX=0;entryY=0.5;entryDx=0;entryDy=0;exitX=0.5;exitY=0.5;exitDx=0;exitDy=0;exitPerimeter=0;" parent="1" source="wZuFeC5D8lDeIrhIpYlz-4" target="SYt4uejBmZhXCNzfpht0-1" edge="1">
          <mxGeometry width="50" height="50" relative="1" as="geometry">
            <mxPoint x="640" y="1350" as="sourcePoint" />
            <mxPoint x="690" y="1300" as="targetPoint" />
          </mxGeometry>
        </mxCell>
        <mxCell id="SYt4uejBmZhXCNzfpht0-12" value="&lt;font style=&quot;font-size: 22px;&quot;&gt;Cuenta&lt;br&gt;&lt;/font&gt;" style="ellipse;whiteSpace=wrap;html=1;" parent="1" vertex="1">
          <mxGeometry x="530" y="1710" width="190" height="110" as="geometry" />
        </mxCell>
        <mxCell id="SYt4uejBmZhXCNzfpht0-30" style="edgeStyle=orthogonalEdgeStyle;rounded=0;orthogonalLoop=1;jettySize=auto;html=1;entryX=1;entryY=0.5;entryDx=0;entryDy=0;dashed=1;" parent="1" source="SYt4uejBmZhXCNzfpht0-14" target="SYt4uejBmZhXCNzfpht0-12" edge="1">
          <mxGeometry relative="1" as="geometry" />
        </mxCell>
        <mxCell id="SYt4uejBmZhXCNzfpht0-31" value="&lt;font style=&quot;font-size: 23px;&quot;&gt;Extend&lt;/font&gt;" style="edgeLabel;html=1;align=center;verticalAlign=middle;resizable=0;points=[];" parent="SYt4uejBmZhXCNzfpht0-30" vertex="1" connectable="0">
          <mxGeometry x="-0.2593" relative="1" as="geometry">
            <mxPoint x="3" y="-45" as="offset" />
          </mxGeometry>
        </mxCell>
        <mxCell id="SYt4uejBmZhXCNzfpht0-14" value="&lt;font style=&quot;font-size: 22px;&quot;&gt;Perfil&lt;br&gt;&lt;/font&gt;" style="ellipse;whiteSpace=wrap;html=1;" parent="1" vertex="1">
          <mxGeometry x="810" y="1810" width="190" height="110" as="geometry" />
        </mxCell>
        <mxCell id="SYt4uejBmZhXCNzfpht0-32" style="edgeStyle=orthogonalEdgeStyle;rounded=0;orthogonalLoop=1;jettySize=auto;html=1;entryX=0.5;entryY=1;entryDx=0;entryDy=0;dashed=1;" parent="1" source="SYt4uejBmZhXCNzfpht0-17" target="SYt4uejBmZhXCNzfpht0-12" edge="1">
          <mxGeometry relative="1" as="geometry" />
        </mxCell>
        <mxCell id="SYt4uejBmZhXCNzfpht0-33" value="&lt;font style=&quot;font-size: 23px;&quot;&gt;Extend&lt;/font&gt;" style="edgeLabel;html=1;align=center;verticalAlign=middle;resizable=0;points=[];" parent="SYt4uejBmZhXCNzfpht0-32" vertex="1" connectable="0">
          <mxGeometry x="0.7382" y="-2" relative="1" as="geometry">
            <mxPoint x="38" y="126" as="offset" />
          </mxGeometry>
        </mxCell>
        <mxCell id="SYt4uejBmZhXCNzfpht0-17" value="&lt;font style=&quot;font-size: 22px;&quot;&gt;Seguridad&lt;br&gt;&lt;/font&gt;" style="ellipse;whiteSpace=wrap;html=1;" parent="1" vertex="1">
          <mxGeometry x="760" y="1970" width="210" height="110" as="geometry" />
        </mxCell>
        <mxCell id="SYt4uejBmZhXCNzfpht0-20" style="edgeStyle=orthogonalEdgeStyle;rounded=0;orthogonalLoop=1;jettySize=auto;html=1;exitX=0;exitY=0.5;exitDx=0;exitDy=0;entryX=1;entryY=0.5;entryDx=0;entryDy=0;dashed=1;" parent="1" source="SYt4uejBmZhXCNzfpht0-18" target="SYt4uejBmZhXCNzfpht0-14" edge="1">
          <mxGeometry relative="1" as="geometry" />
        </mxCell>
        <mxCell id="SYt4uejBmZhXCNzfpht0-22" value="&lt;font style=&quot;font-size: 23px;&quot;&gt;Extend&lt;br&gt;&lt;/font&gt;" style="edgeLabel;html=1;align=center;verticalAlign=middle;resizable=0;points=[];" parent="SYt4uejBmZhXCNzfpht0-20" vertex="1" connectable="0">
          <mxGeometry x="-0.1898" y="5" relative="1" as="geometry">
            <mxPoint x="35" y="2" as="offset" />
          </mxGeometry>
        </mxCell>
        <mxCell id="SYt4uejBmZhXCNzfpht0-18" value="&lt;font style=&quot;font-size: 22px;&quot;&gt;Modificar datos de usuario&lt;br&gt;&lt;/font&gt;" style="ellipse;whiteSpace=wrap;html=1;" parent="1" vertex="1">
          <mxGeometry x="1080" y="1620" width="230" height="130" as="geometry" />
        </mxCell>
        <mxCell id="SYt4uejBmZhXCNzfpht0-21" style="edgeStyle=orthogonalEdgeStyle;rounded=0;orthogonalLoop=1;jettySize=auto;html=1;entryX=1;entryY=1;entryDx=0;entryDy=0;dashed=1;" parent="1" source="SYt4uejBmZhXCNzfpht0-19" target="SYt4uejBmZhXCNzfpht0-14" edge="1">
          <mxGeometry relative="1" as="geometry" />
        </mxCell>
        <mxCell id="SYt4uejBmZhXCNzfpht0-23" value="&lt;font style=&quot;font-size: 23px;&quot;&gt;Extend&lt;br&gt;&lt;/font&gt;" style="edgeLabel;html=1;align=center;verticalAlign=middle;resizable=0;points=[];" parent="SYt4uejBmZhXCNzfpht0-21" vertex="1" connectable="0">
          <mxGeometry x="-0.3399" y="2" relative="1" as="geometry">
            <mxPoint x="38" y="51" as="offset" />
          </mxGeometry>
        </mxCell>
        <mxCell id="SYt4uejBmZhXCNzfpht0-19" value="&lt;font style=&quot;font-size: 22px;&quot;&gt;Cambiar clave de acceso&lt;br&gt;&lt;/font&gt;" style="ellipse;whiteSpace=wrap;html=1;" parent="1" vertex="1">
          <mxGeometry x="1140" y="1790" width="220" height="130" as="geometry" />
        </mxCell>
        <mxCell id="SYt4uejBmZhXCNzfpht0-28" style="edgeStyle=orthogonalEdgeStyle;rounded=0;orthogonalLoop=1;jettySize=auto;html=1;entryX=1;entryY=0.5;entryDx=0;entryDy=0;dashed=1;" parent="1" source="SYt4uejBmZhXCNzfpht0-24" target="SYt4uejBmZhXCNzfpht0-17" edge="1">
          <mxGeometry relative="1" as="geometry" />
        </mxCell>
        <mxCell id="SYt4uejBmZhXCNzfpht0-29" value="&lt;font style=&quot;font-size: 23px;&quot;&gt;Extend&lt;br&gt;&lt;/font&gt;" style="edgeLabel;html=1;align=center;verticalAlign=middle;resizable=0;points=[];" parent="SYt4uejBmZhXCNzfpht0-28" vertex="1" connectable="0">
          <mxGeometry x="0.2167" relative="1" as="geometry">
            <mxPoint x="11" y="-25" as="offset" />
          </mxGeometry>
        </mxCell>
        <mxCell id="SYt4uejBmZhXCNzfpht0-24" value="&lt;font style=&quot;font-size: 22px;&quot;&gt;Tus dispositivos&lt;br&gt;&lt;/font&gt;" style="ellipse;whiteSpace=wrap;html=1;" parent="1" vertex="1">
          <mxGeometry x="1070" y="1970" width="210" height="110" as="geometry" />
        </mxCell>
        <mxCell id="SYt4uejBmZhXCNzfpht0-26" style="edgeStyle=orthogonalEdgeStyle;rounded=0;orthogonalLoop=1;jettySize=auto;html=1;entryX=1;entryY=0.5;entryDx=0;entryDy=0;dashed=1;" parent="1" source="SYt4uejBmZhXCNzfpht0-25" target="SYt4uejBmZhXCNzfpht0-24" edge="1">
          <mxGeometry relative="1" as="geometry" />
        </mxCell>
        <mxCell id="SYt4uejBmZhXCNzfpht0-27" value="&lt;font style=&quot;font-size: 23px;&quot;&gt;Extend&lt;/font&gt;" style="edgeLabel;html=1;align=center;verticalAlign=middle;resizable=0;points=[];" parent="SYt4uejBmZhXCNzfpht0-26" vertex="1" connectable="0">
          <mxGeometry x="0.2424" y="1" relative="1" as="geometry">
            <mxPoint x="8" y="-36" as="offset" />
          </mxGeometry>
        </mxCell>
        <mxCell id="SYt4uejBmZhXCNzfpht0-25" value="&lt;font style=&quot;font-size: 22px;&quot;&gt;Cerrar sesión de dispositivos&lt;br&gt;&lt;/font&gt;" style="ellipse;whiteSpace=wrap;html=1;" parent="1" vertex="1">
          <mxGeometry x="1380" y="1960" width="210" height="110" as="geometry" />
        </mxCell>
        <mxCell id="SYt4uejBmZhXCNzfpht0-34" value="" style="endArrow=none;html=1;rounded=0;exitX=0;exitY=0.5;exitDx=0;exitDy=0;entryX=0.5;entryY=0.5;entryDx=0;entryDy=0;entryPerimeter=0;" parent="1" source="SYt4uejBmZhXCNzfpht0-12" target="wZuFeC5D8lDeIrhIpYlz-4" edge="1">
          <mxGeometry width="50" height="50" relative="1" as="geometry">
            <mxPoint x="500" y="1470" as="sourcePoint" />
            <mxPoint x="550" y="1420" as="targetPoint" />
          </mxGeometry>
        </mxCell>
        <mxCell id="SYt4uejBmZhXCNzfpht0-35" value="&lt;font style=&quot;font-size: 22px;&quot;&gt;Cerrar sesión&lt;br&gt;&lt;/font&gt;" style="ellipse;whiteSpace=wrap;html=1;" parent="1" vertex="1">
          <mxGeometry x="540" y="2090" width="190" height="110" as="geometry" />
        </mxCell>
        <mxCell id="SYt4uejBmZhXCNzfpht0-36" value="" style="endArrow=none;html=1;rounded=0;exitX=0;exitY=0.5;exitDx=0;exitDy=0;entryX=0.5;entryY=0.5;entryDx=0;entryDy=0;entryPerimeter=0;" parent="1" source="SYt4uejBmZhXCNzfpht0-35" target="wZuFeC5D8lDeIrhIpYlz-4" edge="1">
          <mxGeometry width="50" height="50" relative="1" as="geometry">
            <mxPoint x="800" y="1770" as="sourcePoint" />
            <mxPoint x="850" y="1720" as="targetPoint" />
          </mxGeometry>
        </mxCell>
        <mxCell id="Bx9YppGljFobjhbyYAwD-2" style="edgeStyle=orthogonalEdgeStyle;rounded=0;orthogonalLoop=1;jettySize=auto;html=1;entryX=1;entryY=0.5;entryDx=0;entryDy=0;dashed=1;" parent="1" source="Bx9YppGljFobjhbyYAwD-1" target="wZuFeC5D8lDeIrhIpYlz-15" edge="1">
          <mxGeometry relative="1" as="geometry" />
        </mxCell>
        <mxCell id="Bx9YppGljFobjhbyYAwD-5" value="&lt;font style=&quot;font-size: 23px;&quot;&gt;Extend&lt;/font&gt;" style="edgeLabel;html=1;align=center;verticalAlign=middle;resizable=0;points=[];" parent="Bx9YppGljFobjhbyYAwD-2" vertex="1" connectable="0">
          <mxGeometry x="-0.2133" relative="1" as="geometry">
            <mxPoint x="28" y="15" as="offset" />
          </mxGeometry>
        </mxCell>
        <mxCell id="Bx9YppGljFobjhbyYAwD-1" value="&lt;font style=&quot;font-size: 22px;&quot;&gt;Agregar&lt;br&gt;&lt;/font&gt;" style="ellipse;whiteSpace=wrap;html=1;" parent="1" vertex="1">
          <mxGeometry x="1390" y="370" width="190" height="110" as="geometry" />
        </mxCell>
        <mxCell id="FkhOKwiWbC-E_QFP129G-4" style="edgeStyle=orthogonalEdgeStyle;rounded=0;orthogonalLoop=1;jettySize=auto;html=1;entryX=1;entryY=0.5;entryDx=0;entryDy=0;dashed=1;" edge="1" parent="1" source="FkhOKwiWbC-E_QFP129G-1" target="wZuFeC5D8lDeIrhIpYlz-28">
          <mxGeometry relative="1" as="geometry">
            <Array as="points">
              <mxPoint x="1220" y="785" />
              <mxPoint x="1220" y="720" />
              <mxPoint x="1090" y="720" />
            </Array>
          </mxGeometry>
        </mxCell>
        <mxCell id="FkhOKwiWbC-E_QFP129G-5" value="&lt;font style=&quot;font-size: 23px;&quot;&gt;Extend&lt;/font&gt;" style="edgeLabel;html=1;align=center;verticalAlign=middle;resizable=0;points=[];" vertex="1" connectable="0" parent="FkhOKwiWbC-E_QFP129G-4">
          <mxGeometry x="-0.186" relative="1" as="geometry">
            <mxPoint x="25" y="-15" as="offset" />
          </mxGeometry>
        </mxCell>
        <mxCell id="FkhOKwiWbC-E_QFP129G-1" value="&lt;font style=&quot;font-size: 22px;&quot;&gt;Agregar&lt;br&gt;&lt;/font&gt;" style="ellipse;whiteSpace=wrap;html=1;" vertex="1" parent="1">
          <mxGeometry x="1440" y="730" width="190" height="110" as="geometry" />
        </mxCell>
        <mxCell id="FkhOKwiWbC-E_QFP129G-9" style="edgeStyle=orthogonalEdgeStyle;rounded=0;orthogonalLoop=1;jettySize=auto;html=1;entryX=1;entryY=0.5;entryDx=0;entryDy=0;dashed=1;" edge="1" parent="1" source="FkhOKwiWbC-E_QFP129G-6" target="SYt4uejBmZhXCNzfpht0-1">
          <mxGeometry relative="1" as="geometry" />
        </mxCell>
        <mxCell id="FkhOKwiWbC-E_QFP129G-12" value="&lt;font style=&quot;font-size: 23px;&quot;&gt;Extend&lt;/font&gt;" style="edgeLabel;html=1;align=center;verticalAlign=middle;resizable=0;points=[];" vertex="1" connectable="0" parent="FkhOKwiWbC-E_QFP129G-9">
          <mxGeometry x="0.3154" relative="1" as="geometry">
            <mxPoint x="40" y="-9" as="offset" />
          </mxGeometry>
        </mxCell>
        <mxCell id="FkhOKwiWbC-E_QFP129G-6" value="&lt;font style=&quot;font-size: 22px;&quot;&gt;Realizar venta&lt;br&gt;&lt;/font&gt;" style="ellipse;whiteSpace=wrap;html=1;" vertex="1" parent="1">
          <mxGeometry x="730" y="1220" width="190" height="110" as="geometry" />
        </mxCell>
        <mxCell id="FkhOKwiWbC-E_QFP129G-8" style="edgeStyle=orthogonalEdgeStyle;rounded=0;orthogonalLoop=1;jettySize=auto;html=1;entryX=1;entryY=0.5;entryDx=0;entryDy=0;dashed=1;" edge="1" parent="1" source="FkhOKwiWbC-E_QFP129G-7" target="FkhOKwiWbC-E_QFP129G-6">
          <mxGeometry relative="1" as="geometry" />
        </mxCell>
        <mxCell id="FkhOKwiWbC-E_QFP129G-11" value="&lt;font style=&quot;font-size: 23px;&quot;&gt;Include&lt;/font&gt;" style="edgeLabel;html=1;align=center;verticalAlign=middle;resizable=0;points=[];" vertex="1" connectable="0" parent="FkhOKwiWbC-E_QFP129G-8">
          <mxGeometry x="0.1852" y="-1" relative="1" as="geometry">
            <mxPoint x="13" y="-24" as="offset" />
          </mxGeometry>
        </mxCell>
        <mxCell id="FkhOKwiWbC-E_QFP129G-7" value="&lt;font style=&quot;font-size: 22px;&quot;&gt;Crear orden&lt;br&gt;&lt;/font&gt;" style="ellipse;whiteSpace=wrap;html=1;" vertex="1" parent="1">
          <mxGeometry x="1010" y="1220" width="190" height="110" as="geometry" />
        </mxCell>
      </root>
    </mxGraphModel>
  </diagram>
</mxfile>
